{
  "title": "Game Of Thrones S05E05 720p HDTV x264-0SEC",
  "uid": 11901329,
  "size": 1230164707,
  "categoryP": "video",
  "categoryS": "hd___tv_shows",
  "magnet": "?xt=urn:btih:4a7c28fc3a204b254a3ce8ccbc4e88c8e144c377&amp;dn=Game+Of+Thrones+S05E05+720p+HDTV+x264-0SEC&amp;tr=udp%3A%2F%2Ftracker.openbittorrent.com%3A80&amp;tr=udp%3A%2F%2Fopen.demonii.com%3A1337&amp;tr=udp%3A%2F%2Ftracker.coppersurfer.tk%3A6969&amp;tr=udp%3A%2F%2Fexodus.desync.com%3A6969",
  "seeders": 724,
  "leechers": 10,
  "uploader": "HeroMaster",
  "files": 2,
  "time": 1431318710,
  "description": "Game Of Thrones S05E05 720p HDTV x264-0SEC\n\n\n::Information::\n\n\nRelease.: Game.Of.Thrones.S05E05.PROPER.720p.HDTV.x264-0SEC\nDate....: 10-05-2015\nSource..: HBO EAST (UNSCRAMBLED)\n\nIt means that I'm not the Samaritan. That I'm not the priest, or the Levite. \nThat I am the ill intent... who set upon the traveler on a road that he should \nnot have been on.\n\n\n::IMDB::\n\n &lt;a href=&quot;\nhttp://imdb.com/title/tt0944947/&quot; rel=&quot;nofollow&quot; target=&quot;_NEW&quot;&gt;\nhttp://imdb.com/title/tt0944947/&lt;/a&gt;\n\n\n::Others::\n\n\nVideo\nID                                       : 1\nFormat                                   : AVC\nFormat/Info                              : Advanced Video Codec\nFormat profile                           : &lt;a class=&quot;__cf_email__&quot; href=&quot;/cdn-cgi/l/email-protection&quot; data-cfemail=&quot;3971505e5179750d1708&quot;&gt;[email&amp;#160;protected]&lt;/a&gt;&lt;script cf-hash='f9e31' type=&quot;text/javascript&quot;&gt;\n/* &lt;![CDATA[ */!function(){try{var t=&quot;currentScript&quot;in document?document.currentScript:function(){for(var t=document.getElementsByTagName(&quot;script&quot;),e=t.length;e--;)if(t[e].getAttribute(&quot;cf-hash&quot;))return t[e]}();if(t&amp;&amp;t.previousSibling){var e,r,n,i,c=t.previousSibling,a=c.getAttribute(&quot;data-cfemail&quot;);if(a){for(e=&quot;&quot;,r=parseInt(a.substr(0,2),16),n=2;a.length-n;n+=2)i=parseInt(a.substr(n,2),16)^r,e+=String.fromCharCode(i);e=document.createTextNode(e),c.parentNode.replaceChild(e,c)}}}catch(u){}}();/* ]]&gt; */&lt;/script&gt;\nFormat settings, CABAC                   : Yes\nFormat settings, ReFrames                : 5 frames\nCodec ID                                 : V_MPEG4/ISO/AVC\nDuration                                 : 56mn 37s\nBit rate                                 : 2 455 Kbps\nWidth                                    : 1 280 pixels\nHeight                                   : 720 pixels\nDisplay aspect ratio                     : 16:9\nFrame rate mode                          : Constant\nFrame rate                               : 23.976 fps\nColor space                              : YUV\nChroma subsampling                       : 4:2:0\nBit depth                                : 8 bits\nScan type                                : Progressive\nBits/(Pixel*Frame)                       : 0.111\nStream size                              : 994 MiB (85%)\nWriting library                          : x264 core 146 r2538 121396c\nLanguage                                 : English\nDefault                                  : Yes\nForced                                   : No\nColor range                              : Limited\nMatrix coefficients                      : BT.709\n\n\nAudio\nID                                       : 2\nFormat                                   : AC-3\nFormat/Info                              : Audio Coding 3\nMode extension                           : CM (complete main)\nFormat settings, Endianness              : Big\nCodec ID                                 : A_AC3\nDuration                                 : 56mn 37s\nBit rate mode                            : Constant\nBit rate                                 : 384 Kbps\nChannel(s)                               : 6 channels\nChannel positions                        : Front: L C R, Side: L R, LFE\nSampling rate                            : 48.0 KHz\nBit depth                                : 16 bits\nCompression mode                         : Lossy\nStream size                              : 156 MiB (13%)\nDefault                                  : No\nForced                                   : No\n\n\nPoster:\n\n &lt;a href=&quot;\nhttp://i.imgur.com/wiIJBhs.jpg&quot; rel=&quot;nofollow&quot; target=&quot;_NEW&quot;&gt;\nhttp://i.imgur.com/wiIJBhs.jpg&lt;/a&gt;\n\n\nScreenshots:\n\n &lt;a href=&quot;\nhttp://i.imgur.com/eVexDuU.jpg&quot; rel=&quot;nofollow&quot; target=&quot;_NEW&quot;&gt;\nhttp://i.imgur.com/eVexDuU.jpg&lt;/a&gt;\n\n\nSEED AND ENJOY!",
  "parsed": {
    "xt": "urn:btih:4a7c28fc3a204b254a3ce8ccbc4e88c8e144c377",
    "dn": "Game Of Thrones S05E05 720p HDTV x264-0SEC",
    "tr": [
      "udp://exodus.desync.com:6969",
      "udp://open.demonii.com:1337",
      "udp://tracker.coppersurfer.tk:6969",
      "udp://tracker.openbittorrent.com:80"
    ],
    "infoHash": "4a7c28fc3a204b254a3ce8ccbc4e88c8e144c377",
    "infoHashBuffer": {
      "type": "Buffer",
      "data": [
        74,
        124,
        40,
        252,
        58,
        32,
        75,
        37,
        74,
        60,
        232,
        204,
        188,
        78,
        136,
        200,
        225,
        68,
        195,
        119
      ]
    },
    "name": "Game Of Thrones S05E05 720p HDTV x264-0SEC",
    "announce": [
      "udp://exodus.desync.com:6969",
      "udp://open.demonii.com:1337",
      "udp://tracker.coppersurfer.tk:6969",
      "udp://tracker.openbittorrent.com:80"
    ],
    "urlList": []
  },
  "previous": 734,
  "peers": 102,
  "last_updated": "2016-12-25T00:16:58.147Z"
}